# xmcd
# 
# Track frame offsets:
#     150
#     75062
#     115527
#     168135
# 
# Disc length: 3477
# 
# Revision: 6
# Processed by: cddbd v1.5.2PL0 Copyright (c) Steve Scherf et al.
# Submitted via: fre:ac v1.0.31
# 
DISCID=160d9304
DTITLE=Various Artist - Mahler
DYEAR=0
DGENRE=Classical
TTITLE0=未知 - トラック 1
TTITLE1=未知 - トラック 2
TTITLE2=未知 - トラック 3
TTITLE3=未知 - トラック 4
EXTD=
EXTT0=
EXTT1=
EXTT2=
EXTT3=
PLAYORDER=
